<svg width="16" height="16" viewBox="0 0 16 16" fill="none" xmlns="http://www.w3.org/2000/svg">
<path d="M7.5 8.99783H5.5C4.11875 8.99783 3 10.1163 3 11.4972C3 11.7722 3.225 11.9971 3.5 11.9971H9.5C9.77612 11.9971 10 11.7733 10 11.4972C10 10.1163 8.88125 8.99783 7.5 8.99783ZM6.5 7.99807C7.60469 7.99807 8.5 7.10297 8.5 5.99855C8.5 4.89413 7.60469 3.99903 6.5 3.99903C5.39563 3.99903 4.5 4.89413 4.5 5.99855C4.5 7.10297 5.39687 7.99807 6.5 7.99807ZM14.5 9.99759H14V12.9969H14.5C14.7761 12.9969 15 12.773 15 12.497V10.4975C15 10.2225 14.775 9.99759 14.5 9.99759ZM14.5 1.99952H14V4.99879H14.5C14.775 4.99879 15 4.77385 15 4.49891V2.4994C15 2.22321 14.775 1.99952 14.5 1.99952ZM14.5 5.99855H14V8.99783H14.5C14.775 8.99783 15 8.77288 15 8.49795V6.49843C15 6.2235 14.775 5.99855 14.5 5.99855ZM11 0H2C0.895313 0 0 0.895096 0 1.99952V13.9966C0 15.101 0.895313 15.9961 2 15.9961H11C12.1047 15.9961 13 15.101 13 13.9966V1.99952C13 0.895096 12.1031 0 11 0ZM11.5 13.9966C11.5 14.2727 11.2761 14.4965 11 14.4965H2C1.72388 14.4965 1.5 14.2727 1.5 13.9966V1.99952C1.5 1.7234 1.72388 1.49964 2 1.49964H11C11.2761 1.49964 11.5 1.7234 11.5 1.99952V13.9966Z" fill="#3E5374"/>
</svg>
