<?xml version="1.0" encoding="UTF-8"?><svg id="Art" xmlns="http://www.w3.org/2000/svg" viewBox="0 0 64 64"><path d="m19.5,4c-8.55,0-15.5,6.95-15.5,15.5s6.95,15.5,15.5,15.5,15.5-6.95,15.5-15.5-6.95-15.5-15.5-15.5Zm-7.05,26.99c.57-3.42,3.53-5.96,7.05-5.96s6.47,2.54,7.05,5.96c-2.05,1.27-4.46,2.01-7.05,2.01s-4.99-.74-7.05-2.01Zm15.86-1.28c-1.09-3.89-4.64-6.68-8.81-6.68s-7.72,2.78-8.81,6.68c-2.87-2.48-4.69-6.13-4.69-10.21,0-7.44,6.06-13.5,13.5-13.5s13.5,6.06,13.5,13.5c0,4.08-1.82,7.73-4.69,10.21Z"/><path d="m19.5,8.53c-3.55,0-6.44,2.89-6.44,6.44s2.89,6.44,6.44,6.44,6.44-2.89,6.44-6.44-2.89-6.44-6.44-6.44Zm0,10.88c-2.45,0-4.44-1.99-4.44-4.44s1.99-4.44,4.44-4.44,4.44,1.99,4.44,4.44-1.99,4.44-4.44,4.44Z"/><path d="m29,44.5c0,8.55,6.95,15.5,15.5,15.5s15.5-6.95,15.5-15.5-6.95-15.5-15.5-15.5-15.5,6.95-15.5,15.5Zm8.45,11.49c.57-3.42,3.53-5.96,7.05-5.96s6.47,2.54,7.05,5.96c-2.05,1.27-4.46,2.01-7.05,2.01s-4.99-.74-7.05-2.01Zm7.05-24.99c7.44,0,13.5,6.06,13.5,13.5,0,4.08-1.82,7.73-4.69,10.21-1.09-3.89-4.64-6.68-8.81-6.68s-7.72,2.78-8.81,6.68c-2.87-2.48-4.69-6.13-4.69-10.21,0-7.44,6.06-13.5,13.5-13.5Z"/><path d="m44.5,46.41c3.55,0,6.44-2.89,6.44-6.44s-2.89-6.44-6.44-6.44-6.44,2.89-6.44,6.44,2.89,6.44,6.44,6.44Zm0-10.88c2.45,0,4.44,1.99,4.44,4.44s-1.99,4.44-4.44,4.44-4.44-1.99-4.44-4.44,1.99-4.44,4.44-4.44Z"/><path d="m18.89,45.33c.31-.46.2-1.08-.26-1.39l-3.85-2.63c-.13-.14-.31-.22-.5-.26-.04,0-.07-.02-.11-.02-.04,0-.07-.02-.11-.02-.03,0-.06.02-.09.02-.04,0-.09,0-.13,0-.05,0-.09.04-.14.06-.01,0-.03.01-.04.02-.18.07-.35.18-.46.35l-2.76,4.04c-.31.46-.19,1.08.26,1.39.17.12.37.17.56.17.32,0,.63-.15.83-.44l1.3-1.9c1.24,5.35,6.03,9.36,11.75,9.36.55,0,1-.45,1-1s-.45-1-1-1c-4.84,0-8.89-3.44-9.85-8l2.22,1.52c.46.31,1.08.19,1.39-.26Z"/><path d="m45.11,18.72c-.31.46-.19,1.08.26,1.39l3.85,2.63c.12.12.27.2.43.25.06.02.12.03.17.04.04,0,.07.02.11.02,0,0,.01,0,.02,0,0,0,.01,0,.02,0,.32,0,.63-.15.83-.44l2.76-4.04c.31-.46.2-1.08-.26-1.39-.46-.31-1.08-.19-1.39.26l-1.3,1.9c-1.24-5.35-6.03-9.36-11.75-9.36-.55,0-1,.45-1,1s.45,1,1,1c4.84,0,8.9,3.44,9.85,8l-2.22-1.52c-.46-.31-1.08-.19-1.39.26Z"/></svg>